<svg xmlns="http://www.w3.org/2000/svg" data-name="Layer 1" viewBox="0 0 512 640" x="0px" y="0px"><defs><style>.cls-1{fill:none;}</style></defs><title>wifi20</title><path class="cls-1" d="M475.76,117.66c-0.11-.13-0.93-0.77-6.22-0.78-7.64,0-15.39-.15-22.89-0.29-8.19-.15-16.65-0.31-25-0.29-3.61,0-4.84.26-5.26,0.44-0.13.32-.4,1.34-0.4,4.37q0,55.17,0,110.28c0,52.37.05,106.52,0,159.82,0,3.08.6,4,.86,4.26s1.15,0.82,4.08.76c11.25-.24,22.66-0.2,33.71-0.16q6.39,0,12.78,0c1.83,0,3.47,0,4.86.08s2.86,0.07,3.79,0c0.18-1.42,0-4.14,0-6.24,0-30.92-.17-60.65-0.17-90.89V256h0.5V225.41c0-33.43,0-67.76,0-100.56C476.48,123.29,476.48,118.51,475.76,117.66Z"/><path class="cls-1" d="M380.16,172.31c-0.52-.51-1.9-0.78-3.78-0.75-11.11.19-22.39,0.16-33.29,0.12-5.36,0-10.71,0-16.07,0-5.68,0-5.68,0-5.69,7.76,0,25.75,0,52.27,0,78.71V283l0.06,4.5c0,9.29,0,18.41,0,27.45,0,26.37,0,51.27-.11,77.85a8.8,8.8,0,0,0,.33,3.19,10.16,10.16,0,0,0,3.83.34l6.25-.15c14.88-.35,30.26-0.71,45.44-0.4,2.5,0,3.08-.47,3.14-0.53s0.68-.83.67-4c-0.08-66.1-.07-136.42.05-215C381,173.45,380.41,172.56,380.16,172.31Z"/><path d="M469.54,107.88c-7.56,0-15.27-.15-22.73-0.29-8.24-.15-16.75-0.31-25.15-0.29-9.91,0-14.63,2.1-14.63,13.81q0,55.17,0,110.29c0,52.36.05,106.51,0,159.81,0,3.09.37,7.56,3.56,10.69,2.29,2.24,5.56,3.34,10,3.34,0.19,0,.38,0,0.58,0,11.14-.23,22.5-0.22,33.49-0.19,4.11,0,8.22,0,12.33,0h0.51c1.76,0,3.24.09,4.56,0.12,4.8,0.12,7.94.26,10.45-2.19,2.71-2.64,2.62-6.53,2.62-13,0-30.92-.17-60.65-0.17-90.89V265h0.5V225.41c0-33.43,0-67.76,0-100.57C485.48,112.9,483.26,107.9,469.54,107.88Zm7,117.53V256H476v43.07c0,30.24.18,60,.17,90.89,0,2.1.18,4.82,0,6.24-0.93.05-2.43,0-3.79,0s-3-.11-4.86-0.08q-6.4,0-12.78,0c-11,0-22.46-.07-33.71.16-2.94.06-3.83-.51-4.08-0.76s-0.86-1.18-.86-4.26c0-53.3,0-107.45,0-159.82q0-55.13,0-110.28c0-3,.26-4,0.4-4.37,0.42-.18,1.65-0.43,5.26-0.44,8.31,0,16.77.14,25,.29,7.49,0.14,15.24.29,22.89,0.29,5.29,0,6.11.65,6.22,0.78,0.72,0.85.73,5.62,0.73,7.19C476.5,157.66,476.5,192,476.5,225.41Z"/><path d="M386.47,165.89c-2.36-2.32-5.71-3.4-10.25-3.34-11,.19-22.25.16-33.11,0.12q-8.06,0-16.11,0c-13.56,0-14.67,7.6-14.67,16.76,0,25.75,0,52.28,0,78.71V287.5l0.06,4.5h0c0,7.74,0,15.38,0,23,0,26.35,0,51.24-.11,77.79,0,3.3.32,7,3,9.67,2.51,2.47,6.08,2.92,9.4,2.92h1l6.26-.15c14.78-.35,30.06-0.71,45-0.4,4.25,0.09,7.41-.93,9.63-3.1,3-2.94,3.38-7.1,3.37-10.4-0.08-66.09-.07-136.41.05-215C390,171.65,388.85,168.24,386.47,165.89Zm-5.53,225.4c0,3.13-.56,3.85-0.67,4s-0.64.58-3.14,0.53c-15.17-.31-30.56,0-45.44.4l-6.25.15a10.16,10.16,0,0,1-3.83-.34,8.8,8.8,0,0,1-.33-3.19c0.16-26.58.13-51.48,0.11-77.85,0-9,0-18.16,0-27.45l-0.06-4.5V258.12c0-26.43,0-53,0-78.71,0-7.75,0-7.75,5.69-7.76,5.36,0,10.71,0,16.07,0,10.9,0,22.18.07,33.29-.12,1.88,0,3.26.24,3.78,0.75,0.25,0.25.85,1.14,0.84,4C380.88,254.87,380.86,325.19,380.95,391.3Z"/><path d="M290.75,221.66c-2.32-2.28-5.66-3.37-10.15-3.26-11.31.21-22.84,0.17-34,.13q-7.6,0-15.21,0c-14.46,0-15.52,6.92-15.54,18.3,0,18.36,0,37.34,0,56.51V321H216v15.91c0,16.72,0,33.21,0,50.69,0,8.63,0,13,3,16,2.56,2.54,6,2.82,11.31,2.82h5.26c6.53,0,13.15-.15,19.55-0.3,8.29-.19,16.86-0.38,25.25-0.25,4.51,0.1,7.87-1,10.24-3.36s3.57-5.82,3.56-10.53c-0.12-52.89-.1-106.63.06-159.75C294.24,229.14,293.89,224.74,290.75,221.66Z"/><path d="M195,277.32c-1.57-1.6-4.44-3.32-9.17-3.32H186v-0.16c-17,.1-34-0.06-51.54-0.15-4.31,0-7.61,1.08-9.9,3.38s-3.48,5.62-3.46,10.07c0.14,36,.14,71.12,0,104.39,0,4.65,1.11,8,3.46,10.36s5.69,3.41,10.26,3.34c17.36-.26,34.38-0.25,50.6,0h1c3.39,0,7-.36,9.59-2.92s2.87-6.34,2.82-9.31c-0.22-12.28-.18-23.48-0.14-35.35,0-3.48,0-7,0-10.65l0-4.49c0-4.37,0-9.06,0-13.94,0-12.74-.09-27.15.15-39.74C198.92,283.79,197.65,280,195,277.32Z"/><path d="M100.94,330.66c-2.17-2.13-5.2-3.14-9.31-3h0c-4.7.1-9.28,0.11-13.14,0.1l-5.38,0q-7.91,0-15.82,0l-5.32,0h0c-3.85,0-8.42,0-13.1-.12-4-.12-7.05.86-9.2,3s-3.22,5.26-3.17,9.53c0.19,18.44.19,35.5,0,52.15,0,4.22,1,7.35,3.18,9.55s5.07,3.2,9,3.2H91.74c4,0,7.07-1.1,9.2-3.24s3.13-5,3.12-8.7c-0.05-18.82,0-37.71,0-53.7C104.08,335.63,103,332.71,100.94,330.66Z"/><text x="0" y="527" fill="#000000" font-size="5px" font-weight="bold" font-family="'Helvetica Neue', Helvetica, Arial-Unicode, Arial, Sans-serif">Created by i cons</text><text x="0" y="532" fill="#000000" font-size="5px" font-weight="bold" font-family="'Helvetica Neue', Helvetica, Arial-Unicode, Arial, Sans-serif">from the Noun Project</text></svg>